<svg xmlns="http://www.w3.org/2000/svg" width="13" height="15" viewBox="0 0 13 15"><defs><style>.a{fill:#fff;}</style></defs><path class="a" d="M11.607-13.125a1.329,1.329,0,0,1,.972.425,1.354,1.354,0,0,1,.421.981V.469a1.354,1.354,0,0,1-.421.981,1.329,1.329,0,0,1-.972.425H1.393A1.329,1.329,0,0,1,.421,1.45,1.354,1.354,0,0,1,0,.469V-11.719A1.354,1.354,0,0,1,.421-12.7a1.329,1.329,0,0,1,.972-.425ZM3.714-.381V-1.494A.366.366,0,0,0,3.6-1.758a.359.359,0,0,0-.261-.117h-1.1a.359.359,0,0,0-.261.117.366.366,0,0,0-.116.264V-.381a.366.366,0,0,0,.116.264A.359.359,0,0,0,2.234,0h1.1A.359.359,0,0,0,3.6-.117.366.366,0,0,0,3.714-.381Zm0-3.75V-5.244A.366.366,0,0,0,3.6-5.508a.359.359,0,0,0-.261-.117h-1.1a.359.359,0,0,0-.261.117.366.366,0,0,0-.116.264v1.113a.366.366,0,0,0,.116.264.359.359,0,0,0,.261.117h1.1A.359.359,0,0,0,3.6-3.867.366.366,0,0,0,3.714-4.131ZM7.429-.381V-1.494a.366.366,0,0,0-.116-.264.359.359,0,0,0-.261-.117h-1.1a.359.359,0,0,0-.261.117.366.366,0,0,0-.116.264V-.381a.366.366,0,0,0,.116.264A.359.359,0,0,0,5.949,0h1.1a.359.359,0,0,0,.261-.117A.366.366,0,0,0,7.429-.381Zm0-3.75V-5.244a.366.366,0,0,0-.116-.264.359.359,0,0,0-.261-.117h-1.1a.359.359,0,0,0-.261.117.366.366,0,0,0-.116.264v1.113a.366.366,0,0,0,.116.264.359.359,0,0,0,.261.117h1.1a.359.359,0,0,0,.261-.117A.366.366,0,0,0,7.429-4.131Zm3.714,3.75V-5.244a.366.366,0,0,0-.116-.264.359.359,0,0,0-.261-.117h-1.1a.359.359,0,0,0-.261.117.366.366,0,0,0-.116.264V-.381A.366.366,0,0,0,9.4-.117.359.359,0,0,0,9.663,0h1.1a.359.359,0,0,0,.261-.117A.366.366,0,0,0,11.143-.381Zm0-7.5v-2.988a.366.366,0,0,0-.116-.264.359.359,0,0,0-.261-.117H2.234a.359.359,0,0,0-.261.117.366.366,0,0,0-.116.264v2.988a.366.366,0,0,0,.116.264.359.359,0,0,0,.261.117h8.531a.359.359,0,0,0,.261-.117A.366.366,0,0,0,11.143-7.881Z" transform="translate(0 13.125)"/></svg>