<svg xmlns="http://www.w3.org/2000/svg" width="20" height="15" viewBox="0 0 20 15"><defs><style>.a{fill:#fff;}</style></defs><path class="a" d="M9.553-10a.445.445,0,0,1,.371.176.5.5,0,0,1,.1.41l-.234.938a.459.459,0,0,1-.468.352H8.89A3.761,3.761,0,0,1,9.4-6.25V-.937a.9.9,0,0,1-.273.664A.9.9,0,0,1,8.461,0H7.836a.9.9,0,0,1-.663-.273A.9.9,0,0,1,6.9-.937v-.937H-6.839v.938a.9.9,0,0,1-.273.664A.9.9,0,0,1-7.775,0H-8.4a.9.9,0,0,1-.663-.273.9.9,0,0,1-.273-.664V-6.25a3.761,3.761,0,0,1,.507-1.875h-.429a.459.459,0,0,1-.468-.352l-.234-.937a.5.5,0,0,1,.1-.41A.445.445,0,0,1-9.493-10h2.029l1.249-3.047a3.2,3.2,0,0,1,.663-1.035,2.853,2.853,0,0,1,1.015-.684A3.227,3.227,0,0,1-3.326-15H3.387a3.066,3.066,0,0,1,1.756.527,2.993,2.993,0,0,1,1.132,1.426L7.524-10ZM-4.5-12.344-5.434-10H5.494l-.937-2.344a1.158,1.158,0,0,0-1.171-.781H-3.326A1.158,1.158,0,0,0-4.5-12.344ZM7.524-4.375V-6.25a1.809,1.809,0,0,0-.546-1.328,1.806,1.806,0,0,0-1.327-.547H-5.59a1.806,1.806,0,0,0-1.327.547A1.809,1.809,0,0,0-7.463-6.25v1.875a.609.609,0,0,0,.176.449.608.608,0,0,0,.449.176H6.9a.608.608,0,0,0,.449-.176A.609.609,0,0,0,7.524-4.375ZM-5.863-6.836a1.215,1.215,0,0,1,.9-.352,1.856,1.856,0,0,1,1.21.645,1.8,1.8,0,0,1,.663,1.23.6.6,0,0,1-.059.273.372.372,0,0,1-.2.176q-.137.059-.254.1a1.542,1.542,0,0,1-.332.059q-.215.02-.332.02h-.7a1.215,1.215,0,0,1-.9-.352,1.217,1.217,0,0,1-.351-.9A1.217,1.217,0,0,1-5.863-6.836Zm9.679.313a1.838,1.838,0,0,1,1.21-.664,1.215,1.215,0,0,1,.9.352,1.217,1.217,0,0,1,.351.9,1.217,1.217,0,0,1-.351.9,1.215,1.215,0,0,1-.9.352h-.7q-.117,0-.332-.02a1.542,1.542,0,0,1-.332-.059q-.117-.039-.254-.1a.372.372,0,0,1-.2-.176.6.6,0,0,1-.059-.273A1.738,1.738,0,0,1,3.816-6.523Z" transform="translate(9.97 15)"/></svg>