<svg xmlns="http://www.w3.org/2000/svg" width="20" height="20" viewBox="0 0 20 20"><defs><style>.a{fill:#fff;}</style></defs><path class="a" d="M-2.812-16.562A13.467,13.467,0,0,1,2.5-17.5a13.721,13.721,0,0,1,5.313.918Q10-15.664,10-14.375v8.75a1.75,1.75,0,0,1-.645,1.27A5.335,5.335,0,0,1,7.578-3.32,11.687,11.687,0,0,1,5-2.7v2.07Q5,.664,2.813,1.582A13.721,13.721,0,0,1-2.5,2.5a13.721,13.721,0,0,1-5.312-.918Q-10,.664-10-.625v-8.75q0-1.016,1.387-1.816A10.026,10.026,0,0,1-5-12.3v-2.07Q-5-15.664-2.812-16.562ZM3.125-.781V-2.3A13.3,13.3,0,0,1-2.5-1.25,13.3,13.3,0,0,1-8.125-2.3V-.781A4.368,4.368,0,0,0-6.211.156,12.746,12.746,0,0,0-2.5.625,12.746,12.746,0,0,0,1.211.156,4.368,4.368,0,0,0,3.125-.781Zm0-3.75V-6.289A11.234,11.234,0,0,1-2.5-5,11.1,11.1,0,0,1-8.125-6.289v1.758a4.368,4.368,0,0,0,1.914.938A12.746,12.746,0,0,0-2.5-3.125a12.746,12.746,0,0,0,3.711-.469A4.368,4.368,0,0,0,3.125-4.531ZM-6.484-7.422A12.692,12.692,0,0,0-2.5-6.875a12.692,12.692,0,0,0,3.984-.547Q3.125-7.969,3.125-8.75T1.484-10.078A12.692,12.692,0,0,0-2.5-10.625a12.692,12.692,0,0,0-3.984.547q-1.641.547-1.641,1.328T-6.484-7.422ZM8.125-5.781V-7.3A11.232,11.232,0,0,1,5-6.445V-4.57A5.577,5.577,0,0,0,8.125-5.781Zm0-3.75v-1.758a9.487,9.487,0,0,1-3.4,1.094A1.537,1.537,0,0,1,5-9.375V-8.32A5.577,5.577,0,0,0,8.125-9.531ZM2.5-11.875a12.692,12.692,0,0,0,3.984-.547q1.641-.547,1.641-1.328T6.484-15.078A12.692,12.692,0,0,0,2.5-15.625a12.692,12.692,0,0,0-3.984.547q-1.641.547-1.641,1.328,0,.742,1.523,1.289a13.05,13.05,0,0,1,3.516.586Z" transform="translate(10 17.5)"/></svg>