<svg xmlns="http://www.w3.org/2000/svg" width="15.5" height="15.5" viewBox="0 0 15.5 15.5"><defs><style>.a{fill:#589f58;}</style></defs><path class="a" d="M53.469,2.531A7.393,7.393,0,0,1,55.75,8a7.47,7.47,0,0,1-2.266,5.484,7.771,7.771,0,0,1-10.969,0A7.47,7.47,0,0,1,40.25,8a7.47,7.47,0,0,1,2.266-5.484A7.47,7.47,0,0,1,48,.25,7.393,7.393,0,0,1,53.469,2.531Zm-6.375,9.563,5.75-5.75a.409.409,0,0,0,0-.687l-.687-.719a.462.462,0,0,0-.719,0L46.75,9.625,44.563,7.438a.462.462,0,0,0-.719,0l-.687.719a.409.409,0,0,0,0,.688l3.25,3.25A.409.409,0,0,0,47.094,12.094Z" transform="translate(-40.25 -0.25)"/></svg>