<svg xmlns="http://www.w3.org/2000/svg" width="20.009" height="17.5" viewBox="0 0 20.009 17.5"><defs><style>.a{fill:#fff;}</style></defs><path class="a" d="M2.539-7.969,3.4-6.25H7.656L.547,1.016A.729.729,0,0,1,.02,1.25a.61.61,0,0,1-.488-.234L-7.578-6.25h3.672l1.172-2.812L-.508-4.1a.553.553,0,0,0,.547.352A.553.553,0,0,0,.586-4.1Zm6.016-6.641a5.126,5.126,0,0,1,1.484,3.5A5.184,5.184,0,0,1,8.828-7.5H4.18L3.086-9.648A.553.553,0,0,0,2.539-10a.553.553,0,0,0-.547.352L.078-5.82-2.187-10.9a.646.646,0,0,0-.605-.352.566.566,0,0,0-.566.391L-4.766-7.5H-8.75a5.184,5.184,0,0,1-1.211-3.613,5.126,5.126,0,0,1,1.484-3.5l.117-.078A4.818,4.818,0,0,1-4.727-16.25a4.943,4.943,0,0,1,3.672,1.563L.039-13.594l1.094-1.133A5,5,0,0,1,4.8-16.25a4.877,4.877,0,0,1,3.633,1.523Z" transform="translate(9.965 16.25)"/></svg>