<svg xmlns="http://www.w3.org/2000/svg" width="15" height="20" viewBox="0 0 15 20"><defs><style>.a{fill:#fff;}</style></defs><path class="a" d="M5.625-15a1.808,1.808,0,0,1,1.328.547A1.808,1.808,0,0,1,7.5-13.125V.625a1.808,1.808,0,0,1-.547,1.328A1.808,1.808,0,0,1,5.625,2.5H-5.625a1.808,1.808,0,0,1-1.328-.547A1.808,1.808,0,0,1-7.5.625v-13.75a1.808,1.808,0,0,1,.547-1.328A1.808,1.808,0,0,1-5.625-15H-2.5a2.4,2.4,0,0,1,.742-1.758A2.4,2.4,0,0,1,0-17.5a2.4,2.4,0,0,1,1.758.742A2.4,2.4,0,0,1,2.5-15ZM.664-15.664A.9.9,0,0,0,0-15.937a.9.9,0,0,0-.664.273A.9.9,0,0,0-.937-15a.9.9,0,0,0,.273.664A.9.9,0,0,0,0-14.062a.9.9,0,0,0,.664-.273A.9.9,0,0,0,.938-15,.9.9,0,0,0,.664-15.664ZM5.625.391V-12.891a.207.207,0,0,0-.234-.234H3.75v1.406a.414.414,0,0,1-.469.469H-3.281a.414.414,0,0,1-.469-.469v-1.406H-5.391a.207.207,0,0,0-.234.234V.391a.207.207,0,0,0,.234.234H5.391A.207.207,0,0,0,5.625.391ZM3.438-6.25a.276.276,0,0,1,.313.313v1.875a.276.276,0,0,1-.312.313H1.25v2.188a.276.276,0,0,1-.312.313H-.937a.276.276,0,0,1-.312-.312V-3.75H-3.437a.276.276,0,0,1-.312-.312V-5.937a.276.276,0,0,1,.313-.312H-1.25V-8.437A.276.276,0,0,1-.937-8.75H.938a.276.276,0,0,1,.313.313V-6.25Z" transform="translate(7.5 17.5)"/></svg>