<svg xmlns="http://www.w3.org/2000/svg" width="15" height="20" viewBox="0 0 15 20"><defs><style>.a{fill:#fff;}</style></defs><path class="a" d="M5.625-12.5a1.808,1.808,0,0,1,1.328.547A1.808,1.808,0,0,1,7.5-10.625v10A1.808,1.808,0,0,1,6.953.7a1.808,1.808,0,0,1-1.328.547H5v.625a.6.6,0,0,1-.625.625H3.125A.6.6,0,0,1,2.5,1.875V1.25h-5v.625a.608.608,0,0,1-.176.449.608.608,0,0,1-.449.176h-1.25a.608.608,0,0,1-.449-.176A.608.608,0,0,1-5,1.875V1.25h-.625A1.808,1.808,0,0,1-6.953.7,1.808,1.808,0,0,1-7.5-.625v-10a1.808,1.808,0,0,1,.547-1.328A1.808,1.808,0,0,1-5.625-12.5H-3.75v-3.125A1.808,1.808,0,0,1-3.2-16.953,1.808,1.808,0,0,1-1.875-17.5h3.75a1.808,1.808,0,0,1,1.328.547,1.808,1.808,0,0,1,.547,1.328V-12.5Zm-7.5-3.125V-12.5h3.75v-3.125Zm7.5,15v-10H-5.625v10ZM-3.437-2.5a.276.276,0,0,1-.312-.312v-1.25a.276.276,0,0,1,.313-.312H3.438a.276.276,0,0,1,.313.313v1.25a.276.276,0,0,1-.312.313Zm0-4.375a.276.276,0,0,1-.312-.312v-1.25a.276.276,0,0,1,.313-.312H3.438a.276.276,0,0,1,.313.313v1.25a.276.276,0,0,1-.312.313Z" transform="translate(7.5 17.5)"/></svg>