<svg xmlns="http://www.w3.org/2000/svg" width="17.5" height="17.5" viewBox="0 0 17.5 17.5"><defs><style>.a{fill:#fff;}</style></defs><path class="a" d="M5.547-11.328a1.808,1.808,0,0,1,1.328-.547,1.808,1.808,0,0,1,1.328.547A1.808,1.808,0,0,1,8.75-10,1.808,1.808,0,0,1,8.2-8.672a1.808,1.808,0,0,1-1.328.547,1.808,1.808,0,0,1-1.328-.547A1.808,1.808,0,0,1,5-10,1.808,1.808,0,0,1,5.547-11.328ZM-1.8-13.047a1.808,1.808,0,0,1-1.328.547,1.808,1.808,0,0,1-1.328-.547A1.808,1.808,0,0,1-5-14.375,1.808,1.808,0,0,1-4.453-15.7a1.808,1.808,0,0,1,1.328-.547A1.808,1.808,0,0,1-1.8-15.7a1.808,1.808,0,0,1,.547,1.328A1.808,1.808,0,0,1-1.8-13.047Zm6.25,0a1.808,1.808,0,0,1-1.328.547A1.808,1.808,0,0,1,1.8-13.047a1.808,1.808,0,0,1-.547-1.328A1.808,1.808,0,0,1,1.8-15.7a1.808,1.808,0,0,1,1.328-.547,1.808,1.808,0,0,1,1.328.547A1.808,1.808,0,0,1,5-14.375,1.808,1.808,0,0,1,4.453-13.047Zm1.133,7.3A3.42,3.42,0,0,1,6.992-4.395,3.723,3.723,0,0,1,7.5-2.5,3.616,3.616,0,0,1,6.406.156,3.616,3.616,0,0,1,3.75,1.25H3.594A4.376,4.376,0,0,1,1.406.625,4.242,4.242,0,0,0,0,0,4.242,4.242,0,0,0-1.406.625a4.376,4.376,0,0,1-2.187.625H-3.75A3.616,3.616,0,0,1-6.406.156,3.616,3.616,0,0,1-7.5-2.5a3.723,3.723,0,0,1,.508-1.895A3.42,3.42,0,0,1-5.586-5.742,4.563,4.563,0,0,0-5.02-6.23a4.61,4.61,0,0,0,.586-.742q.293-.449.488-.781t.508-.957a9.175,9.175,0,0,1,.469-.859,2.948,2.948,0,0,1,.566-.742,3.542,3.542,0,0,1,.723-.527,3.137,3.137,0,0,1,.82-.312A3.867,3.867,0,0,1,0-11.25a3.619,3.619,0,0,1,1.738.43,2.924,2.924,0,0,1,1.23,1.25q.156.234.41.723t.41.781q.156.293.41.7t.449.684a4.2,4.2,0,0,0,.449.527A3.264,3.264,0,0,0,5.586-5.742ZM3.75-.625a1.808,1.808,0,0,0,1.328-.547A1.808,1.808,0,0,0,5.625-2.5a1.7,1.7,0,0,0-.937-1.6A4.454,4.454,0,0,1,3.477-5.156a8.994,8.994,0,0,1-.9-1.25q-.312-.547-.859-1.523a5.883,5.883,0,0,0-.391-.742A1.394,1.394,0,0,0,0-9.375a1.394,1.394,0,0,0-1.328.7l-.391.781q-.547.977-.859,1.5a8.921,8.921,0,0,1-.9,1.211A5.363,5.363,0,0,1-4.687-4.1a1.7,1.7,0,0,0-.937,1.6,1.81,1.81,0,0,0,.254.938,1.911,1.911,0,0,0,.684.684,1.81,1.81,0,0,0,.938.254h.156a2.9,2.9,0,0,0,1.484-.547A4.364,4.364,0,0,1,0-1.875a4.364,4.364,0,0,1,2.109.7,2.9,2.9,0,0,0,1.484.547h.117Zm-9.3-10.7A1.808,1.808,0,0,1-5-10a1.808,1.808,0,0,1-.547,1.328,1.808,1.808,0,0,1-1.328.547A1.808,1.808,0,0,1-8.2-8.672,1.808,1.808,0,0,1-8.75-10,1.808,1.808,0,0,1-8.2-11.328a1.808,1.808,0,0,1,1.328-.547A1.808,1.808,0,0,1-5.547-11.328Z" transform="translate(8.75 16.25)"/></svg>