<svg xmlns="http://www.w3.org/2000/svg" width="15.5" height="15.5" viewBox="0 0 15.5 15.5"><defs><style>.a{fill:#ce4747;}</style></defs><path class="a" d="M42.5,2.531a7.771,7.771,0,0,1,10.984-.016A7.47,7.47,0,0,1,55.75,8a7.47,7.47,0,0,1-2.266,5.484,7.771,7.771,0,0,1-10.969,0A7.47,7.47,0,0,1,40.25,8,7.445,7.445,0,0,1,42.5,2.531Zm9.313,7.5L49.75,8l2.063-2.031a.345.345,0,0,0,0-.531l-1.25-1.25a.345.345,0,0,0-.531,0L48,6.25,45.969,4.188a.345.345,0,0,0-.531,0l-1.25,1.25a.345.345,0,0,0,0,.531L46.25,8l-2.062,2.031a.345.345,0,0,0,0,.531l1.25,1.25a.345.345,0,0,0,.531,0L48,9.75l2.031,2.063a.345.345,0,0,0,.531,0l1.25-1.25A.345.345,0,0,0,51.813,10.031Z" transform="translate(-40.25 -0.25)"/></svg>