<svg xmlns="http://www.w3.org/2000/svg" width="13.125" height="12.773" viewBox="0 0 13.125 12.773"><defs><style>.a{fill:#fff;}</style></defs><path class="a" d="M5.566-11.162l.674-.645a.678.678,0,0,1,.5-.205.678.678,0,0,1,.5.205L12.92-6.123a.678.678,0,0,1,.205.5.678.678,0,0,1-.205.5L7.236.557a.707.707,0,0,1-1,0L5.566-.088a.63.63,0,0,1-.19-.5.733.733,0,0,1,.22-.5L9.111-4.453H.7a.678.678,0,0,1-.5-.205A.678.678,0,0,1,0-5.156v-.937a.678.678,0,0,1,.205-.5A.678.678,0,0,1,.7-6.8H9.111L5.6-10.166a.733.733,0,0,1-.22-.5A.63.63,0,0,1,5.566-11.162Z" transform="translate(0 12.012)"/></svg>