<svg xmlns="http://www.w3.org/2000/svg" width="69.75" height="69.75" viewBox="0 0 69.75 69.75"><defs><style>.a{fill:#30b6e8;}</style></defs><path class="a" d="M24.609-51.609A33.27,33.27,0,0,1,34.875-27,33.616,33.616,0,0,1,24.68-2.32,33.616,33.616,0,0,1,0,7.875,33.616,33.616,0,0,1-24.68-2.32,33.616,33.616,0,0,1-34.875-27a33.616,33.616,0,0,1,10.2-24.68A33.616,33.616,0,0,1,0-61.875,33.27,33.27,0,0,1,24.609-51.609ZM-4.078-8.578,21.8-34.453a1.84,1.84,0,0,0,0-3.094L18.7-40.781a2.077,2.077,0,0,0-3.234,0L-5.625-19.687l-9.844-9.844a2.077,2.077,0,0,0-3.234,0L-21.8-26.3a1.84,1.84,0,0,0,0,3.094L-7.172-8.578A1.84,1.84,0,0,0-4.078-8.578Z" transform="translate(34.875 61.875)"/></svg>