<svg xmlns="http://www.w3.org/2000/svg" width="25" height="20" viewBox="0 0 25 20"><defs><style>.a{fill:#fff;}</style></defs><path class="a" d="M11.875-3.125a.608.608,0,0,1,.449.176A.608.608,0,0,1,12.5-2.5v.625a.608.608,0,0,1-.176.449.608.608,0,0,1-.449.176H10A3.616,3.616,0,0,1,8.906,1.406,3.616,3.616,0,0,1,6.25,2.5,3.616,3.616,0,0,1,3.594,1.406,3.616,3.616,0,0,1,2.5-1.25h-5A3.616,3.616,0,0,1-3.594,1.406,3.616,3.616,0,0,1-6.25,2.5,3.616,3.616,0,0,1-8.906,1.406,3.616,3.616,0,0,1-10-1.25v-5h1.875v1.758A3.758,3.758,0,0,1-6.25-5a3.62,3.62,0,0,1,1.875.508A3.822,3.822,0,0,1-3.008-3.125H1.875V-15.312a.276.276,0,0,0-.312-.312H-7.812a.276.276,0,0,0-.312.313v1.563h5.313a.276.276,0,0,1,.313.313v.625a.276.276,0,0,1-.312.313h-9.375a.276.276,0,0,1-.312-.312v-.625a.276.276,0,0,1,.313-.312H-10v-1.562a2.105,2.105,0,0,1,.645-1.543A2.105,2.105,0,0,1-7.812-17.5H1.563a2.105,2.105,0,0,1,1.543.645,2.105,2.105,0,0,1,.645,1.543v1.563H5.156a2.712,2.712,0,0,1,1.992.82L10.43-9.648a2.712,2.712,0,0,1,.82,1.992v4.531ZM-7.578.078A1.808,1.808,0,0,0-6.25.625,1.808,1.808,0,0,0-4.922.078,1.808,1.808,0,0,0-4.375-1.25a1.808,1.808,0,0,0-.547-1.328A1.808,1.808,0,0,0-6.25-3.125a1.808,1.808,0,0,0-1.328.547A1.808,1.808,0,0,0-8.125-1.25,1.808,1.808,0,0,0-7.578.078ZM3.75-11.875V-8.75H8.672L5.82-11.6a.9.9,0,0,0-.664-.273ZM4.922.078A1.808,1.808,0,0,0,6.25.625,1.808,1.808,0,0,0,7.578.078,1.808,1.808,0,0,0,8.125-1.25a1.808,1.808,0,0,0-.547-1.328A1.808,1.808,0,0,0,6.25-3.125a1.808,1.808,0,0,0-1.328.547A1.808,1.808,0,0,0,4.375-1.25,1.808,1.808,0,0,0,4.922.078Zm4.453-3.4V-6.875H3.75v2.852A3.647,3.647,0,0,1,6.25-5,3.572,3.572,0,0,1,9.375-3.32ZM-2.5-7.812a.276.276,0,0,1-.312.313h-9.375a.276.276,0,0,1-.312-.312v-.625a.276.276,0,0,1,.313-.312h9.375a.276.276,0,0,1,.313.313ZM-1.562-10h-9.375a.276.276,0,0,1-.312-.312v-.625a.276.276,0,0,1,.313-.312h9.375a.276.276,0,0,1,.313.313v.625A.276.276,0,0,1-1.562-10Z" transform="translate(12.5 17.5)"/></svg>