<svg xmlns="http://www.w3.org/2000/svg" width="18" height="14.625" viewBox="0 0 18 14.625"><defs><style>.a{fill:#fff;}</style></defs><path class="a" d="M7.137-10.406a2.094,2.094,0,0,1,.035.457,10.35,10.35,0,0,1-.7,3.709A11.694,11.694,0,0,1,4.482-2.865,9.474,9.474,0,0,1,1.16-.387a10.532,10.532,0,0,1-4.5.949A10.242,10.242,0,0,1-9-1.09q.387.035.879.035A7.319,7.319,0,0,0-3.516-2.637a3.434,3.434,0,0,1-2.162-.721A3.671,3.671,0,0,1-6.961-5.168q.352.035.668.035a4.686,4.686,0,0,0,.984-.105,3.586,3.586,0,0,1-1.512-.7A3.852,3.852,0,0,1-7.875-7.225a3.537,3.537,0,0,1-.387-1.635v-.07a3.475,3.475,0,0,0,1.652.492,3.548,3.548,0,0,1-1.652-3.094,3.564,3.564,0,0,1,.527-1.863,10.179,10.179,0,0,0,3.357,2.742A10.219,10.219,0,0,0-.141-9.527a5.124,5.124,0,0,1-.07-.844,3.58,3.58,0,0,1,1.072-2.6,3.494,3.494,0,0,1,2.584-1.09A3.563,3.563,0,0,1,6.152-12.9a7.51,7.51,0,0,0,2.355-.879,3.663,3.663,0,0,1-1.617,2.039A7.93,7.93,0,0,0,9-12.34,8.114,8.114,0,0,1,7.137-10.406Z" transform="translate(9 14.063)"/></svg>