<svg xmlns="http://www.w3.org/2000/svg" width="20" height="19.995" viewBox="0 0 20 19.995"><defs><style>.a{fill:#fff;}</style></defs><path class="a" d="M9.814-12.93a5.834,5.834,0,0,1-.039,3.066A6.174,6.174,0,0,1,8.251-7.187a5.912,5.912,0,0,1-2.6,1.523,5.971,5.971,0,0,1-3.029.078L-4.529,1.563A3.089,3.089,0,0,1-6.8,2.5a3.089,3.089,0,0,1-2.267-.937A3.086,3.086,0,0,1-10-.7a3.086,3.086,0,0,1,.938-2.266l7.191-7.148a6.109,6.109,0,0,1,.059-3.027,5.75,5.75,0,0,1,1.5-2.6,5.852,5.852,0,0,1,2.657-1.543,6.05,6.05,0,0,1,3.087-.02,1.292,1.292,0,0,1,1,.957,1.219,1.219,0,0,1-.371,1.309L3.8-12.734l.2,1.25,1.251.234,2.306-2.3a1.312,1.312,0,0,1,1.329-.352A1.177,1.177,0,0,1,9.814-12.93ZM6.922-8.516a3.92,3.92,0,0,0,1.212-2.969L5.906-9.258,2.349-9.844,1.763-13.4l2.228-2.227H3.952a4.079,4.079,0,0,0-2.931,1.211A3.926,3.926,0,0,0-.054-12.441a4.392,4.392,0,0,0,.1,2.285l.2.547L-7.733-1.641A1.278,1.278,0,0,0-8.124-.7a1.278,1.278,0,0,0,.391.938A1.279,1.279,0,0,0-6.8.625,1.279,1.279,0,0,0-5.857.234L2.115-7.734l.547.2a4.028,4.028,0,0,0,2.286.117A4.061,4.061,0,0,0,6.922-8.516ZM-7.03-1.367a.64.64,0,0,1,.469-.2.609.609,0,0,1,.449.176.608.608,0,0,1,.176.449.608.608,0,0,1-.176.449.609.609,0,0,1-.449.176A.609.609,0,0,1-7.01-.488a.608.608,0,0,1-.176-.449A.581.581,0,0,1-7.03-1.367Z" transform="translate(10 17.495)"/></svg>